PathFileType	4	(X/Y/Z)	Kaydara																																																																																																																									
DataRate	CameraRate	NumFrames	NumMarkers	Units	OrigDataRate	OrigDataStartFrame	OrigNumFrames																																																																																																																					
30	30	7	41	mm	30	111	147																																																																																																																					
Frame#	Time	NABA_LFHD			NABA_RFHD			NABA_LBHD			NABA_RBHD			NABA_LFTShould			NABA_RFTShould			NABA_LRRShould			NABA_RRRShould			NABA_T10			NABA_STRN			NABA_TRUN			NABA_LSHO			NABA_LUPA			NABA_LELB			NABA_LFRM			NABA_LWRA			NABA_LWRB			NABA_LFIN			NABA_RSHO			NABA_RUPA			NABA_RELB			NABA_RFRM			NABA_RWRA			NABA_RWRB			NABA_RFIN			NABA_LFWT			NABA_RFWT			NABA_LBWT			NABA_RBWT			NABA_LTHI			NABA_LKNE			NABA_LSHN			NABA_LANK			NABA_LHEE			NABA_LTOE			NABA_RTHI			NABA_RKNE			NABA_RSHN			NABA_RANK			NABA_RHEE			NABA_RTOE		
		X1	Y1	Z1	X2	Y2	Z2	X3	Y3	Z3	X4	Y4	Z4	X5	Y5	Z5	X6	Y6	Z6	X7	Y7	Z7	X8	Y8	Z8	X9	Y9	Z9	X10	Y10	Z10	X11	Y11	Z11	X12	Y12	Z12	X13	Y13	Z13	X14	Y14	Z14	X15	Y15	Z15	X16	Y16	Z16	X17	Y17	Z17	X18	Y18	Z18	X19	Y19	Z19	X20	Y20	Z20	X21	Y21	Z21	X22	Y22	Z22	X23	Y23	Z23	X24	Y24	Z24	X25	Y25	Z25	X26	Y26	Z26	X27	Y27	Z27	X28	Y28	Z28	X29	Y29	Z29	X30	Y30	Z30	X31	Y31	Z31	X32	Y32	Z32	X33	Y33	Z33	X34	Y34	Z34	X35	Y35	Z35	X36	Y36	Z36	X37	Y37	Z37	X38	Y38	Z38	X39	Y39	Z39	X40	Y40	Z40	X41	Y41	Z41
																																																																																																																												
111	3.677	258.49623	1458.16086	860.04372	88.26508	1433.97736	877.41714	266.69624	1513.39325	746.32057	51.18569	1483.5495	795.7914	240.38338	1287.6535	693.60207	94.42223	1269.96536	715.08469	215.9178	1371.6127	598.45146	73.1431	1359.14536	629.85134	140.98684	1235.53017	485.84812	183.19242	1223.61664	732.89345	193.9365	1116.63109	747.14958	324.9081	1321.32034	624.59911	344.594	1166.69403	455.51529	364.1222	1087.39548	417.21642	347.08317	1012.21588	379.42661	347.584	851.68709	449.16248	394.40529	855.92445	396.35284	400.2393	791.59142	431.95694	-0.81278	1302.82196	688.49518	-37.88779	1180.81551	524.78806	-86.2866	1077.67548	485.86201	-95.97745	974.52911	454.35833	-62.17968	832.74063	513.37299	-128.67388	822.89871	477.90497	-113.38981	775.98938	498.87741	298.34984	922.22328	613.7207	36.78816	914.09401	651.13602	234.84119	990.60242	453.53794	47.9917	1006.55251	479.88266	287.08389	630.08583	478.37788	280.12558	480.42526	540.50404	221.23436	287.106	568.0637	248.49272	134.10589	507.72552	194.81489	86.17211	447.47894	205.56744	54.43087	625.53749	26.49618	633.18932	590.0399	56.70127	516.60023	756.47758	60.15531	338.18195	700.35965	34.58773	181.91561	572.15939	71.87232	160.44975	488.08098	69.74156	76.01317	653.71788
112	3.71	250.4833	1445.63324	923.76381	79.56194	1424.35516	938.91319	260.86252	1502.8952	811.28128	44.36696	1476.31165	857.99232	233.32874	1280.93369	752.3616	86.58377	1262.90405	771.02798	213.04029	1365.20782	660.78552	67.57588	1351.22116	684.15047	144.0864	1227.30995	545.44025	172.4209	1211.02516	788.53584	181.24504	1105.22545	806.41243	319.90452	1314.97192	691.89323	356.1721	1156.80099	532.39067	373.46939	1078.69324	494.41391	357.58652	1002.79037	451.03516	359.21684	843.22067	522.36977	407.44732	848.10089	470.66872	415.06992	785.33012	507.08633	-7.65613	1294.26956	741.99326	-27.85403	1173.70262	569.28967	-79.73522	1061.58249	525.44563	-84.25058	963.48434	495.87578	-55.45956	827.62108	561.62617	-116.13317	813.4388	519.66942	-104.22087	770.35973	542.00249	294.99775	915.17059	682.21497	29.4164	909.78012	707.77321	239.82973	978.40805	518.92773	52.76418	1000.34821	536.75781	288.74258	627.24659	529.57092	277.5564	474.00124	580.05157	218.14304	279.26214	588.56499	246.54982	131.67215	514.20673	193.17211	86.34502	450.81291	203.5545	54.15515	625.18353	18.49839	633.43781	653.51372	43.41344	524.58031	826.76979	41.58805	340.43957	811.73325	28.22066	150.03871	742.19276	76.8321	101.63501	677.26166	45.96192	75.16846	859.75189
113	3.743	243.6157	1434.4635	980.33592	72.38498	1415.04013	994.83192	255.51445	1491.35422	867.79617	38.3872	1466.92719	913.2885	221.77031	1263.9698	807.38167	80.9864	1246.93306	825.22453	210.01329	1352.12097	716.73943	64.20037	1339.2572	736.88797	145.21727	1211.25977	603.79143	163.71971	1199.57016	846.31126	171.77626	1095.47501	870.42717	316.1529	1301.59927	754.1008	356.60954	1132.5988	604.31557	374.53732	1054.10759	564.38545	362.22172	978.15865	527.60246	365.69633	820.26123	600.88943	415.39021	825.03593	550.29861	421.97388	763.06999	587.4736	-14.25836	1283.93372	791.23665	-27.65507	1165.66162	620.8839	-76.75823	1058.50449	572.58957	-81.50257	956.97845	541.96419	-53.66874	818.98163	606.15665	-114.02659	805.28206	564.23759	-102.39857	761.90094	586.3459	291.24958	901.15982	752.86148	27.14543	898.3136	771.8103	240.0108	960.43228	588.64746	54.75098	985.67604	599.31149	289.38375	624.38	577.73521	275.9726	466.82682	611.70158	215.73874	272.91441	605.52456	242.26351	130.93142	520.73097	188.17688	89.85049	453.66459	201.77464	53.25917	624.43069	14.19167	617.74517	713.36273	26.7117	511.10195	884.14803	26.42319	334.85748	911.28525	17.6061	132.89893	903.49091	70.60976	69.11566	859.10492	27.37277	90.79915	1041.6143
114	3.777	237.53687	1423.61633	1036.3446	65.58506	1410.14633	1047.22542	253.47939	1476.74316	922.50671	34.66707	1461.15128	963.759	217.47465	1254.58633	868.51616	69.86708	1233.83255	875.6163	207.83911	1336.93909	771.77917	60.05965	1325.52261	788.59161	144.20178	1193.02147	663.05328	156.29449	1188.79364	907.02644	162.89576	1085.0573	934.74792	312.82385	1285.95154	812.97646	356.28513	1106.62292	671.32004	374.86	1027.3175	640.72136	362.58904	951.65413	603.14846	365.6472	797.27654	680.6488	416.00197	800.22194	630.43045	423.45551	741.76369	669.13048	-19.97468	1271.44707	841.77956	-32.10034	1154.26163	668.8208	-80.87257	1046.76117	620.09686	-85.82496	947.21054	588.60218	-62.6036	810.67184	654.75311	-121.19778	797.71736	610.26356	-112.725	755.16891	632.90165	288.92954	890.27016	824.12704	22.97467	877.15919	837.53532	238.91277	946.02371	657.35863	50.35001	963.55713	664.64996	288.35741	622.09526	632.17083	277.79587	462.76176	652.91008	217.31569	268.09084	629.91547	242.03564	136.40079	528.57944	186.71991	100.60717	460.21816	202.72539	53.02472	625.48946	16.35641	591.92055	777.71156	17.18809	484.55124	945.53078	17.44536	330.1265	997.37801	4.78436	132.94539	1034.08356	53.54387	58.55521	1003.21037	18.88139	117.86601	1181.20552
115	3.81	233.09628	1415.27786	1089.16649	60.927	1406.689	1102.39967	249.29016	1466.14822	974.27292	30.52479	1456.95099	1018.21701	210.15644	1243.32863	927.04613	60.79247	1223.88779	931.45576	202.03201	1323.7854	828.0072	54.64849	1313.6293	841.12717	142.13717	1176.08521	723.88489	147.50865	1180.55786	967.62398	153.25955	1077.8569	999.43306	306.27731	1274.25903	874.72267	349.15154	1091.81595	740.4451	367.99095	1010.57091	709.61876	355.58647	933.76358	675.35049	362.26231	780.20279	755.49507	411.17847	782.84683	703.97675	421.64314	725.56877	743.75412	-26.91438	1261.73233	892.73666	-31.96543	1146.96815	721.72241	-84.80086	1042.64771	668.49342	-91.03939	941.96884	639.61933	-75.49468	805.52917	710.77972	-133.27309	793.29819	665.05188	-127.01533	751.15768	689.37485	285.79147	878.86169	895.52177	19.03773	864.0863	905.73044	233.87617	930.33424	727.85118	45.4309	947.03056	730.92278	287.26212	618.07892	695.50339	278.54151	457.54391	706.73912	219.5702	264.63345	661.43112	245.14156	145.59006	545.25482	190.4623	119.67908	471.40537	205.9071	53.67066	629.02138	13.28711	579.44305	847.38632	13.80914	475.56984	1019.39835	14.75122	321.7688	1074.73801	0.41926	124.80639	1113.12233	47.10232	48.81774	1081.78627	22.63003	111.43453	1261.07582
116	3.843	226.467	1413.36395	1147.90024	54.20736	1407.78122	1159.02679	244.86429	1460.4071	1031.67374	25.64971	1455.94055	1073.09753	203.35609	1237.22099	990.44617	55.07129	1219.88792	992.32689	198.57418	1316.6835	888.13812	49.72394	1307.38007	897.97661	139.35906	1166.82495	786.7894	139.19639	1176.04301	1030.09933	142.7927	1073.87932	1064.6846	301.34851	1265.46577	938.21342	346.23089	1076.69563	808.20679	364.27036	994.55605	780.45586	353.20583	919.95674	747.04247	359.33899	764.83803	821.56639	409.67194	768.98117	771.61537	419.43726	711.06354	809.88983	-33.20162	1255.83855	947.44843	-35.26172	1135.76691	781.21918	-88.13733	1031.073	728.93509	-98.5404	930.7151	701.26091	-93.18129	795.38879	775.34584	-148.42422	785.01747	725.97771	-145.04877	742.61925	751.06567	275.47577	871.51855	971.02554	9.55594	860.07858	973.38692	228.74702	920.25566	799.0493	41.9425	941.43089	798.06122	281.26236	614.26601	766.10245	276.97943	454.58366	772.54555	220.68022	265.18036	703.1662	249.19437	166.02575	568.62766	195.22539	152.7052	492.47803	210.0898	55.4387	635.78167	6.90396	576.17989	922.72285	7.69421	472.40192	1090.87746	8.74467	309.6714	1135.04379	6.65112	110.39368	1151.1496	54.44877	53.22217	1111.6848	20.35807	58.04889	1299.8407
117	3.877	222.10135	1418.7764	1212.87933	49.52359	1416.12808	1221.88133	242.77748	1467.6123	1097.84164	22.92929	1466.35712	1136.60515	198.10589	1244.31831	1054.9456	49.60121	1226.01189	1047.33269	198.29849	1325.25574	955.79536	50.37951	1316.42654	956.09116	142.06157	1175.47745	848.29872	131.67295	1181.13121	1092.11967	133.19403	1079.61113	1128.93318	298.11392	1272.84256	1008.95309	346.25519	1080.28389	880.18364	363.16715	999.51065	856.36909	351.18534	925.68726	818.39104	351.52477	768.04108	889.3779	403.04127	772.42218	840.99129	413.44734	715.53162	877.47139	-33.92944	1265.09239	1005.373	-38.75935	1126.60271	839.17984	-88.38195	1019.40994	798.83102	-100.57727	917.79404	777.01027	-105.94932	789.32823	859.81827	-160.18305	778.58223	809.1172	-161.33587	739.76982	836.27655	264.20164	877.12387	1038.00705	-3.72936	873.70781	1030.20386	228.38528	924.29367	865.94704	42.55436	952.30263	856.40129	271.15917	608.06194	847.79427	270.82125	450.01453	868.20198	219.62194	269.7867	774.20937	250.04385	200.40424	621.93172	197.30698	203.30572	547.56054	209.08009	58.29882	654.07913	-2.63696	589.08939	982.67166	0.09403	492.32395	1158.75397	11.5668	313.74344	1189.97528	8.1829	112.96908	1176.99013	54.45903	56.31679	1124.79958	44.10157	58.7201	1310.9198
